<?xml version="1.0" encoding="UTF-8"?>
<svg id="Layer_1" xmlns="http://www.w3.org/2000/svg" version="1.1" viewBox="0 0 2000 549.43">
  <!-- Generator: Adobe Illustrator 29.0.0, SVG Export Plug-In . SVG Version: 2.1.0 Build 186)  -->
  <defs>
    <style>
      .st0 {
        fill: #1a94ca;
      }

      .st1 {
        fill: #1e406e;
      }

      .st2 {
        fill: #58595b;
      }

      .st3 {
        fill: #5dbd7b;
      }
    </style>
  </defs>
  <g>
    <path class="st2" d="M646.45,142.98h67.07c17.51,0,32.16,1.1,43.97,3.3,11.8,2.2,21.43,5.59,28.89,10.17,13.92,8.89,24.42,20.13,31.51,33.73,7.09,13.6,10.64,29.38,10.64,47.34,0,19.75-3.7,36.54-11.11,50.37-7.41,13.83-18.7,25.18-33.87,34.07-7.54,4.31-17.19,7.45-28.95,9.43-11.76,1.98-27.56,2.96-47.4,2.96h-60.74v-191.37ZM697.76,179.88v116.09h22.09c17.96,0,31.83-5.07,41.61-15.22,9.78-10.14,14.68-24.55,14.68-43.23s-5.1-32.73-15.29-42.69c-10.19-9.97-24.76-14.95-43.7-14.95h-19.39Z"/>
    <path class="st2" d="M856.94,127.49h48.62v39.46h-48.62v-39.46ZM856.94,192.53h48.62v141.81h-48.62v-141.81Z"/>
    <path class="st2" d="M1046.15,196.17l-4.71,34.21c-6.46-3.68-13-6.49-19.59-8.42-6.6-1.93-12.91-2.9-18.92-2.9s-10.5,1.06-13.74,3.16c-3.23,2.11-4.85,5.1-4.85,8.96,0,5.03,6.6,9.34,19.8,12.93,4.13,1.17,7.41,2.11,9.83,2.83,15.08,4.49,25.61,9.97,31.58,16.43,5.97,6.46,8.96,15.31,8.96,26.53,0,14.99-5.84,26.8-17.51,35.42-11.67,8.62-27.74,12.93-48.21,12.93-8.71,0-17.31-.67-25.79-2.02s-16.81-3.37-24.98-6.06l3.1-36.36c6.82,3.5,13.92,6.17,21.28,8.01,7.36,1.84,14.81,2.76,22.36,2.76,7.09,0,12.43-.96,16.03-2.9,3.59-1.93,5.39-4.83,5.39-8.69,0-5.74-7.27-10.77-21.82-15.08-3.59-1.08-6.42-1.93-8.48-2.56-14.81-4.85-25.14-10.26-30.97-16.23-5.84-5.97-8.75-13.8-8.75-23.5,0-14.81,5.83-26.33,17.51-34.54,11.67-8.21,28.1-12.32,49.29-12.32,6.91,0,14.01.63,21.28,1.89,7.27,1.26,14.59,3.1,21.95,5.52Z"/>
    <path class="st2" d="M1213.01,260.14v74.2h-42.15l-1.08-22.09c-5.75,8.17-12.68,14.16-20.81,17.98-8.13,3.82-17.93,5.72-29.43,5.72-14.37,0-25.81-4.08-34.34-12.26-8.53-8.17-12.79-19.08-12.79-32.73,0-15.71,6.19-27.36,18.58-34.95,12.39-7.59,31.47-11.38,57.24-11.38h18.99v-1.89c0-7.72-2.96-13.65-8.89-17.78-5.93-4.13-14.54-6.19-25.86-6.19-5.57,0-11.9.99-18.99,2.96-7.09,1.98-14.73,4.85-22.89,8.62l-.81-32.05c7.9-3.32,16.45-5.79,25.66-7.41,9.2-1.62,19.33-2.42,30.37-2.42,23.16,0,40.15,5.77,50.97,17.31,10.82,11.54,16.23,29.65,16.23,54.34ZM1159.01,269.84c-14.27,0-24.56,1.55-30.84,4.65-6.29,3.1-9.43,8.06-9.43,14.88,0,4.94,1.68,8.93,5.05,11.99,3.37,3.05,7.83,4.58,13.4,4.58,8.8,0,16-2.96,21.61-8.89,5.61-5.93,8.42-13.65,8.42-23.16v-4.04h-8.21Z"/>
    <path class="st2" d="M1246.95,127.49h48.62v84.71c5.66-7.9,12.32-13.78,20-17.64,7.68-3.86,16.54-5.79,26.6-5.79,19.03,0,34.23,6.58,45.59,19.73,11.36,13.15,17.04,30.82,17.04,52.99s-5.84,40.56-17.51,54.34c-11.67,13.78-26.89,20.67-45.65,20.67-11.22,0-21.21-2.6-29.96-7.81-8.75-5.21-15.87-12.79-21.35-22.76v28.42h-43.36V127.49ZM1326.94,224.32c-9.61,0-17.24,3.41-22.89,10.24-5.66,6.82-8.48,16.07-8.48,27.74s2.69,21.28,8.08,28.01c5.39,6.73,12.79,10.1,22.22,10.1,8.89,0,15.98-3.3,21.28-9.9,5.3-6.6,7.95-15.42,7.95-26.46,0-11.85-2.63-21.43-7.88-28.75-5.25-7.32-12.01-10.98-20.27-10.98Z"/>
    <path class="st2" d="M1436.16,127.49h48.62v39.46h-48.62v-39.46ZM1436.16,192.53h48.62v141.81h-48.62v-141.81Z"/>
    <path class="st2" d="M1522.21,127.49h48.62v206.85h-48.62V127.49Z"/>
    <path class="st2" d="M1608.27,127.49h48.62v39.46h-48.62v-39.46ZM1608.27,192.53h48.62v141.81h-48.62v-141.81Z"/>
    <path class="st2" d="M1755.87,144.32v48.21h34.75v35.01h-34.75v48.89c0,10.5,1.71,17.91,5.12,22.22,3.41,4.31,9.25,6.46,17.51,6.46,1.17,0,2.65-.16,4.44-.47,1.79-.31,4.35-.88,7.68-1.68l.81,31.65c-5.21,1.17-10.26,2.06-15.15,2.69-4.89.63-9.68.94-14.34.94-19.21,0-33.11-4.73-41.68-14.21-8.58-9.47-12.86-24.89-12.86-46.26v-50.23h-27.34v-35.01h30.03v-32.73l45.79-15.49Z"/>
    <path class="st2" d="M1802.19,192.53h52.39l31.38,99.12,29.76-99.12h48.89l-55.48,138.44c-5.39,13.47-9.79,23.37-13.2,29.69-3.41,6.33-6.91,11.33-10.5,15.02-6.2,6.37-13.2,11.09-21.01,14.14-7.81,3.05-16.61,4.58-26.4,4.58-3.59,0-7.54-.2-11.85-.61-4.31-.4-9.07-1.01-14.27-1.82l4.31-36.36c2.78.9,5.47,1.57,8.08,2.02,2.6.45,5.16.67,7.68.67,6.64,0,12.3-1.55,16.97-4.65,4.67-3.1,8.66-7.97,11.99-14.61l-58.72-146.52Z"/>
  </g>
  <g>
    <path class="st2" d="M708.8,417.91c-.98,3.84-2.44,7.15-4.39,9.94-1.95,2.79-4.29,5.11-7.01,6.96-2.72,1.85-5.79,3.23-9.21,4.13-3.42.91-7.05,1.36-10.88,1.36-4.88,0-9.42-.72-13.6-2.15s-7.79-3.64-10.83-6.64c-3.03-3-5.41-6.8-7.11-11.4-1.71-4.6-2.56-10.08-2.56-16.43s.85-11.82,2.56-16.43c1.71-4.6,4.08-8.4,7.11-11.4,3.03-3,6.64-5.21,10.83-6.64,4.19-1.43,8.72-2.15,13.6-2.15,3.91,0,7.55.45,10.93,1.36,3.38.91,6.43,2.29,9.15,4.13,2.72,1.85,5.07,4.19,7.06,7.01s3.47,6.16,4.45,9.99c.14.42.21.84.21,1.26,0,1.05-.49,1.97-1.46,2.77-.98.8-2.79,1.2-5.44,1.2-4.6,0-7.36-1.22-8.27-3.66-1.4-3.84-3.58-6.68-6.54-8.53-2.97-1.85-6.33-2.77-10.1-2.77-2.72,0-5.27.45-7.64,1.36-2.37.91-4.43,2.34-6.17,4.29-1.74,1.95-3.12,4.43-4.13,7.43-1.01,3-1.52,6.59-1.52,10.78s.51,7.78,1.52,10.78c1.01,3,2.39,5.46,4.13,7.38,1.74,1.92,3.8,3.33,6.17,4.24,2.37.91,4.92,1.36,7.64,1.36,3.77,0,7.11-.91,10.04-2.72,2.93-1.81,5.13-4.6,6.59-8.37.56-1.26,1.53-2.2,2.93-2.82,1.39-.63,3.14-.94,5.23-.94,2.51,0,4.29.4,5.34,1.2,1.05.8,1.57,1.76,1.57,2.88,0,.42-.07.84-.21,1.26Z"/>
    <path class="st2" d="M736.42,435.49c0,3.21-2.27,4.81-6.8,4.81s-6.8-1.6-6.8-4.81v-63.71c0-3.14,2.27-4.71,6.8-4.71s6.8,1.57,6.8,4.71v63.71Z"/>
    <path class="st2" d="M786.53,432.77c-1.74,2.23-4.1,4.05-7.06,5.44-2.97,1.39-6.75,2.09-11.35,2.09-2.16,0-4.34-.21-6.54-.63-2.2-.42-4.17-1.15-5.91-2.2-1.74-1.05-3.16-2.49-4.24-4.34-1.08-1.85-1.62-4.24-1.62-7.17,0-3.56.84-6.31,2.51-8.27,1.67-1.95,3.78-3.43,6.33-4.45,2.55-1.01,5.32-1.73,8.32-2.15,3-.42,5.79-.82,8.37-1.2,2.58-.38,4.76-.92,6.54-1.62,1.78-.7,2.74-1.88,2.88-3.56-.28-5.16-3.52-7.74-9.73-7.74-2.86,0-5.02.4-6.49,1.2-1.46.8-2.44,2.08-2.93,3.82-.42,1.33-1.34,2.25-2.77,2.77-1.43.52-2.81.78-4.13.78-4.19,0-6.28-1.36-6.28-4.08,0-.35.03-.73.1-1.15.35-1.88,1.05-3.63,2.09-5.23,1.05-1.6,2.49-2.98,4.34-4.13,1.85-1.15,4.1-2.06,6.75-2.72,2.65-.66,5.79-.99,9.42-.99,7.39,0,13.09,1.4,17.11,4.18,4.01,2.79,6.02,7.22,6.02,13.29v19.56c0,1.61.17,2.74.52,3.4.35.66.94.99,1.78.99h.31c.91,0,1.6.45,2.09,1.36.49.91.73,2.13.73,3.66-.07,2.16-.63,3.68-1.67,4.55-1.05.87-2.9,1.31-5.54,1.31h-.52c-4.88,0-8.02-2.27-9.42-6.8ZM764.25,425.13c0,1.88.66,3.38,1.99,4.5,1.32,1.12,3.35,1.67,6.07,1.67,4.18,0,7.31-1.29,9.36-3.87,2.06-2.58,3.09-5.86,3.09-9.83v-2.2c-1.88,1.05-4.01,1.73-6.38,2.04-2.37.31-4.6.68-6.7,1.1s-3.85,1.08-5.28,1.99c-1.43.91-2.15,2.44-2.15,4.6Z"/>
    <path class="st2" d="M814.57,375.75v-3.98c0-3.14,2.3-4.71,6.91-4.71s7.01,1.57,7.01,4.71v3.98c0,3.14-2.34,4.71-7.01,4.71s-6.91-1.57-6.91-4.71ZM828.28,391.97v43.52c0,3.21-2.27,4.81-6.8,4.81s-6.8-1.6-6.8-4.81v-43.52c0-3.14,2.27-4.71,6.8-4.71s6.8,1.57,6.8,4.71Z"/>
    <path class="st2" d="M924.84,435.49c0,3.21-2.27,4.81-6.8,4.81s-6.7-1.6-6.7-4.81v-26.47c0-3.83-.91-6.52-2.72-8.06-1.81-1.53-3.98-2.3-6.49-2.3-3.91,0-6.71,1.59-8.42,4.76-1.71,3.17-2.56,7.52-2.56,13.03v19.04c0,3.21-2.27,4.81-6.8,4.81s-6.8-1.6-6.8-4.81v-26.47c0-3.83-.89-6.52-2.67-8.06-1.78-1.53-3.96-2.3-6.54-2.3-3.84,0-6.63,1.59-8.37,4.76-1.74,3.17-2.62,7.52-2.62,13.03v19.04c0,3.21-2.27,4.81-6.8,4.81s-6.8-1.6-6.8-4.81v-43.1c0-1.74.51-3.03,1.52-3.87,1.01-.84,2.63-1.26,4.87-1.26,1.81,0,3.23.4,4.24,1.2,1.01.8,1.79,2.04,2.35,3.71l.31,3.56c1.6-2.65,3.75-4.72,6.43-6.22,2.68-1.5,6.02-2.25,9.99-2.25s7.34.84,10.1,2.51c2.75,1.67,4.76,4.36,6.02,8.06,1.6-3.35,3.82-5.95,6.64-7.79,2.82-1.85,6.5-2.77,11.04-2.77,5.51,0,9.83,1.64,12.97,4.92,3.14,3.28,4.67,8.62,4.6,16.01v27.31Z"/>
    <path class="st2" d="M992.53,373.03c.98-2.58,2.42-4.22,4.34-4.92,1.92-.7,4.06-1.05,6.43-1.05s4.53.37,6.49,1.1c1.95.73,3.42,2.39,4.39,4.97l23.23,61.52c.21.56.31,1.12.31,1.67,0,.91-.45,1.8-1.36,2.67-.91.87-2.55,1.31-4.92,1.31s-4.2-.33-5.7-.99c-1.5-.66-2.49-1.69-2.98-3.09l-4.71-12.76h-29.61l-4.71,12.76c-.49,1.4-1.5,2.42-3.03,3.09-1.54.66-3.42.99-5.65.99-2.44,0-4.1-.44-4.97-1.31-.87-.87-1.31-1.76-1.31-2.67,0-.56.1-1.12.31-1.67l23.44-61.62ZM1013.88,411.64l-10.46-28.35-10.57,28.35h21.03Z"/>
    <path class="st2" d="M1084.29,435.91l-.42-2.93c-1.81,2.44-4.12,4.27-6.9,5.49-2.79,1.22-5.96,1.83-9.52,1.83-3.35,0-6.42-.52-9.21-1.57-2.79-1.05-5.21-2.65-7.27-4.81-2.06-2.16-3.66-4.9-4.81-8.21-1.15-3.31-1.73-7.27-1.73-11.88s.58-8.56,1.73-11.87c1.15-3.31,2.74-6.07,4.76-8.27,2.02-2.2,4.45-3.82,7.27-4.86,2.83-1.05,5.91-1.57,9.26-1.57,3.56,0,6.71.59,9.47,1.78,2.75,1.19,5.07,3.03,6.96,5.54v-22.81c0-3.14,2.23-4.71,6.7-4.71s6.91,1.57,6.91,4.71v63.4c0,1.74-.52,3.03-1.57,3.87-1.05.84-2.72,1.26-5.02,1.26-3.14,0-5.33-1.46-6.59-4.39ZM1058.55,413.83c0,5.51,1.22,9.52,3.66,12.03,2.44,2.51,5.51,3.77,9.21,3.77,3.14,0,5.81-.82,8-2.46,2.2-1.64,3.68-4.24,4.45-7.79v-11.09c-.84-3.63-2.35-6.24-4.55-7.85-2.2-1.6-4.83-2.41-7.9-2.41-3.7,0-6.77,1.24-9.21,3.71-2.44,2.48-3.66,6.5-3.66,12.08Z"/>
    <path class="st2" d="M1148,390.82c.84-2.44,3.14-3.66,6.91-3.66.49,0,1.01.04,1.57.1,2.37.14,3.92.59,4.66,1.36.73.77,1.1,1.57,1.1,2.41,0,.56-.14,1.15-.42,1.78l-17.68,43.52c-.56,1.4-1.54,2.41-2.93,3.03-1.4.63-3.31.94-5.75.94-2.58,0-4.55-.3-5.91-.89s-2.32-1.59-2.88-2.98l-17.68-43.63c-.28-.7-.42-1.32-.42-1.88,0-.77.37-1.53,1.1-2.3.73-.77,2.28-1.22,4.66-1.36h1.15c1.74,0,3.28.28,4.6.84,1.32.56,2.2,1.46,2.62,2.72l12.76,33.9,12.55-33.9Z"/>
    <path class="st2" d="M1168.51,413.83c0-4.6.66-8.56,1.99-11.87,1.32-3.31,3.19-6.07,5.6-8.27,2.41-2.2,5.25-3.82,8.53-4.86,3.28-1.05,6.83-1.57,10.67-1.57s7.5.52,10.78,1.57c3.28,1.05,6.1,2.67,8.47,4.86,2.37,2.2,4.22,4.95,5.54,8.27,1.32,3.31,1.99,7.27,1.99,11.87s-.66,8.56-1.99,11.88c-1.33,3.31-3.17,6.05-5.54,8.21-2.37,2.16-5.2,3.77-8.47,4.81-3.28,1.05-6.87,1.57-10.78,1.57s-7.39-.52-10.67-1.57c-3.28-1.05-6.12-2.65-8.53-4.81-2.41-2.16-4.27-4.9-5.6-8.21-1.33-3.31-1.99-7.27-1.99-11.88ZM1182.63,413.83c0,2.79.31,5.18.94,7.17.63,1.99,1.5,3.63,2.62,4.92,1.11,1.29,2.46,2.23,4.03,2.82,1.57.59,3.26.89,5.07.89,3.7,0,6.75-1.26,9.16-3.77,2.41-2.51,3.61-6.52,3.61-12.03s-1.2-9.61-3.61-12.08c-2.41-2.48-5.46-3.71-9.16-3.71-1.81,0-3.5.3-5.07.89-1.57.59-2.91,1.54-4.03,2.83-1.12,1.29-1.99,2.93-2.62,4.92-.63,1.99-.94,4.38-.94,7.17Z"/>
    <path class="st2" d="M1283.59,425.87c-1.81,4.95-4.86,8.6-9.15,10.93-4.29,2.34-9.33,3.5-15.12,3.5-3.84,0-7.39-.52-10.67-1.57-3.28-1.05-6.1-2.65-8.47-4.81-2.37-2.16-4.24-4.9-5.6-8.21-1.36-3.31-2.04-7.27-2.04-11.88s.68-8.56,2.04-11.87c1.36-3.31,3.23-6.07,5.6-8.27,2.37-2.2,5.2-3.82,8.47-4.86,3.28-1.05,6.83-1.57,10.67-1.57,5.79,0,10.84,1.13,15.17,3.4,4.32,2.27,7.32,5.88,9,10.83.21.56.31,1.05.31,1.46,0,.98-.51,1.88-1.52,2.72-1.01.84-2.63,1.26-4.87,1.26-1.95,0-3.63-.31-5.02-.94-1.4-.63-2.37-1.5-2.93-2.62-.98-1.95-2.37-3.33-4.18-4.13-1.81-.8-3.8-1.2-5.96-1.2-3.56,0-6.56,1.24-9,3.71-2.44,2.48-3.66,6.5-3.66,12.08s1.22,9.52,3.66,12.03c2.44,2.51,5.44,3.77,9,3.77,2.23,0,4.24-.45,6.02-1.36,1.78-.91,3.19-2.3,4.24-4.19.77-1.26,1.88-2.16,3.35-2.72,1.46-.56,3.03-.84,4.71-.84,2.23,0,3.83.4,4.81,1.2.98.8,1.46,1.69,1.46,2.67,0,.42-.11.91-.31,1.46Z"/>
    <path class="st2" d="M1331.51,432.77c-1.74,2.23-4.1,4.05-7.06,5.44-2.97,1.39-6.75,2.09-11.35,2.09-2.16,0-4.34-.21-6.54-.63s-4.17-1.15-5.91-2.2c-1.74-1.05-3.16-2.49-4.24-4.34-1.08-1.85-1.62-4.24-1.62-7.17,0-3.56.84-6.31,2.51-8.27,1.67-1.95,3.78-3.43,6.33-4.45,2.55-1.01,5.32-1.73,8.32-2.15,3-.42,5.79-.82,8.37-1.2,2.58-.38,4.76-.92,6.54-1.62,1.78-.7,2.74-1.88,2.88-3.56-.28-5.16-3.52-7.74-9.73-7.74-2.86,0-5.02.4-6.49,1.2-1.46.8-2.44,2.08-2.93,3.82-.42,1.33-1.34,2.25-2.77,2.77-1.43.52-2.81.78-4.13.78-4.18,0-6.28-1.36-6.28-4.08,0-.35.03-.73.1-1.15.35-1.88,1.05-3.63,2.09-5.23,1.05-1.6,2.49-2.98,4.34-4.13,1.85-1.15,4.1-2.06,6.75-2.72,2.65-.66,5.79-.99,9.42-.99,7.39,0,13.09,1.4,17.11,4.18,4.01,2.79,6.02,7.22,6.02,13.29v19.56c0,1.61.17,2.74.52,3.4.35.66.94.99,1.78.99h.31c.91,0,1.6.45,2.09,1.36.49.91.73,2.13.73,3.66-.07,2.16-.63,3.68-1.67,4.55-1.05.87-2.89,1.31-5.54,1.31h-.52c-4.88,0-8.02-2.27-9.42-6.8ZM1309.22,425.13c0,1.88.66,3.38,1.99,4.5,1.32,1.12,3.35,1.67,6.07,1.67,4.19,0,7.31-1.29,9.36-3.87,2.06-2.58,3.09-5.86,3.09-9.83v-2.2c-1.88,1.05-4.01,1.73-6.38,2.04-2.37.31-4.6.68-6.7,1.1-2.09.42-3.86,1.08-5.28,1.99-1.43.91-2.14,2.44-2.14,4.6Z"/>
    <path class="st2" d="M1386.12,427.85c3.07,0,4.6,1.81,4.6,5.44,0,2.16-.42,3.7-1.26,4.6-.84.91-2.06,1.36-3.66,1.36h-5.54c-5.86,0-10.17-1.17-12.92-3.5-2.76-2.34-4.13-6.33-4.13-11.98v-25.74h-4.6c-1.61,0-2.74-.38-3.4-1.15-.66-.77-.99-2.02-.99-3.77s.33-2.89.99-3.66c.66-.77,1.79-1.15,3.4-1.15h4.6v-10.67c0-3.14,2.27-4.71,6.8-4.71s6.8,1.57,6.8,4.71v10.67h9.31c1.6,0,2.74.38,3.4,1.15.66.77.99,1.99.99,3.66s-.33,3.02-.99,3.82c-.66.8-1.8,1.17-3.4,1.1h-9.31v21.76c0,1.67.09,3.03.26,4.08.17,1.05.5,1.87.99,2.46.49.59,1.15.99,1.99,1.2.84.21,1.92.31,3.24.31h2.83Z"/>
    <path class="st2" d="M1414.47,417.08c.35,3.98,1.52,7.13,3.5,9.47,1.99,2.34,5.04,3.5,9.15,3.5,2.23,0,4.19-.42,5.86-1.26,1.67-.84,3.1-2.2,4.29-4.08,1.12-1.67,3.66-2.51,7.64-2.51,2.23,0,3.75.38,4.55,1.15.8.77,1.2,1.53,1.2,2.3,0,.56-.14,1.15-.42,1.78-1.61,4.46-4.5,7.73-8.68,9.78-4.19,2.06-9.07,3.09-14.65,3.09-3.84,0-7.36-.52-10.57-1.57-3.21-1.05-6-2.65-8.37-4.81-2.37-2.16-4.22-4.9-5.54-8.21-1.33-3.31-1.99-7.27-1.99-11.88s.66-8.56,1.99-11.87c1.32-3.31,3.17-6.07,5.54-8.27,2.37-2.2,5.16-3.82,8.37-4.86,3.21-1.05,6.73-1.57,10.57-1.57,3.49,0,6.73.47,9.73,1.41,3,.94,5.65,2.32,7.95,4.13,2.3,1.81,4.13,4.06,5.49,6.75,1.36,2.69,2.11,5.77,2.25,9.26v2.82c0,1.6-.56,2.91-1.67,3.92-1.12,1.01-2.51,1.52-4.18,1.52h-32.01ZM1438.22,408.6c0-3.56-1.08-6.29-3.24-8.21-2.16-1.92-4.95-2.88-8.37-2.88-3.63,0-6.37,1.01-8.21,3.03-1.85,2.02-3.05,4.71-3.61,8.06h23.43Z"/>
    <path class="st2" d="M1476.51,425.97c.77,1.67,1.9,2.91,3.4,3.71,1.5.8,3.68,1.2,6.54,1.2,3.42,0,5.89-.49,7.43-1.46,1.53-.98,2.3-2.41,2.3-4.29,0-1.53-.8-2.68-2.41-3.45-1.61-.77-3.61-1.39-6.02-1.88-2.41-.49-5.01-1.01-7.79-1.57-2.79-.56-5.39-1.41-7.79-2.56s-4.41-2.74-6.02-4.76c-1.61-2.02-2.41-4.78-2.41-8.27,0-2.51.56-4.72,1.67-6.64,1.11-1.92,2.67-3.52,4.66-4.81,1.99-1.29,4.38-2.27,7.17-2.93,2.79-.66,5.86-.99,9.21-.99,11.65,0,18.8,3.73,21.45,11.19.56,1.61.3,2.93-.79,3.98-1.08,1.05-2.67,1.57-4.76,1.57-1.61,0-3.07-.31-4.39-.94-1.33-.63-2.37-1.53-3.14-2.72-1.19-2.44-3.94-3.66-8.26-3.66-3,0-5.23.49-6.7,1.46-1.46.98-2.2,2.3-2.2,3.98s.8,3.07,2.41,3.98c1.6.91,3.59,1.66,5.96,2.25,2.37.59,4.97,1.19,7.79,1.78,2.83.59,5.42,1.43,7.79,2.51,2.37,1.08,4.36,2.58,5.96,4.5,1.6,1.92,2.41,4.52,2.41,7.79,0,5.51-2.08,9.45-6.22,11.82-4.15,2.37-9.85,3.56-17.11,3.56-3.63,0-6.78-.28-9.47-.84-2.69-.56-4.97-1.34-6.85-2.35-1.88-1.01-3.38-2.23-4.5-3.66-1.12-1.43-1.95-3.02-2.51-4.76-.56-1.6-.26-2.95.89-4.03,1.15-1.08,2.95-1.62,5.39-1.62,1.39,0,2.75.23,4.08.68,1.32.45,2.27,1.2,2.83,2.25Z"/>
  </g>
  <path class="st0" d="M404.6,223.57c0,43.64-14.39,83.89-38.43,116.63-6.79,9.25-14.29,17.91-22.55,25.83-12.22,11.74-25.89,21.96-40.8,30.26,13.92-20.78,23.54-44.6,28-70.18,1.79-10.25,2.91-20.74,2.91-31.5,0-5.81-.34-11.53-.87-17.21-8.71-92.98-87.12-166.01-182.34-166.01-22.64,0-44.23,4.32-64.26,11.86,37.46-48.96,92.76-83.56,156.12-94.02,92.12,16.77,162.24,97.44,162.24,194.33Z"/>
  <path class="st3" d="M58.03,170.1c25.88-19.27,57.82-30.83,92.49-30.83,67.94,0,125.69,43.91,146.73,104.78-30.05-21.57-66.77-34.42-106.5-34.42-64.85,0-121.81,33.96-154.38,84.95-.6-7.02-.98-14.11-.98-21.29,0-36.82,8.15-71.76,22.64-103.19Z"/>
  <path class="st1" d="M206.93,449.12c17.2,0,33.93-2,50.03-5.66,32.87-7.48,63.01-22.14,88.72-42.26,9.82-7.69,19.01-16.13,27.43-25.31,36.83-40.16,59.36-93.65,59.36-152.31,0-83.04-45.14-155.69-112.13-194.84,118.66,18.14,209.86,120.9,209.86,244.56,0,121.98-88.77,223.56-205.08,243.7-13.76,2.38-27.89,3.7-42.32,3.7-1.29,0-2.56-.08-3.85-.1-50.24-.77-96.89-16.56-135.64-43.11-14.94-10.24-28.68-22.08-41.02-35.26-10.57-11.29-20.09-23.57-28.42-36.69,30.15,22.11,65.96,36.88,104.83,41.76,9.26,1.16,18.67,1.83,28.24,1.83Z"/>
</svg>